<?xml version="1.0" encoding="utf-8"?><svg xmlns="http://www.w3.org/2000/svg" xmlns:xlink="http://www.w3.org/1999/xlink" version="1.1" id="Layer_1" x="0px" y="0px" viewBox="17.9454 96.8993 647.979 770.289" enable-background="new 0 0 672 1024" xml:space="preserve">
    <metadata>
      <rdf:RDF xmlns:rdf="http://www.w3.org/1999/02/22-rdf-syntax-ns#" xmlns:dc="http://purl.org/dc/elements/1.1/">
        <rdf:Description rdf:about="" dc:creator="anto@xplshn.com.ar" dc:title="Escudo con la Cruz Orlada de Solari Parravicini" dc:date="2025-10-11" dc:description="This image was produced by anto@xplshn.com.ar | github.com/xplshn. This is just a recreation of the symbolism used by Las Fuerzas del Cielo (Argentinian (paleo)Libertarian/AnarchoCapitalist Movement)">
        </rdf:Description>
      </rdf:RDF>
    </metadata>
<path fill="#000000" opacity="1.000000" stroke="none" d=" M528.157715,172.800598  C561.566833,195.668350 597.927307,210.040726 637.673035,215.760452  C644.409729,216.729919 651.156982,217.626755 657.894470,218.590790  C662.202515,219.207214 664.234741,221.784515 664.357727,226.088028  C664.923889,245.903748 664.549316,265.712708 663.602661,285.502380  C663.165344,294.644836 663.062195,303.793701 662.524353,312.942200  C661.088867,337.357330 658.772949,361.643646 655.580811,385.898254  C652.278503,410.990295 648.164246,435.888062 641.813965,460.382111  C629.376709,508.354492 610.699463,553.808105 586.493286,597.037537  C573.465210,620.304260 559.630188,643.069702 545.106995,665.426514  C540.166565,673.031799 540.368225,674.022705 547.927979,678.603149  C551.154968,680.558350 550.736694,682.874451 548.851685,685.246338  C545.641907,689.285217 542.262695,693.191467 538.900330,697.106689  C522.902832,715.734375 504.754303,732.210571 486.612366,748.639832  C451.417633,780.511902 414.861298,810.803345 378.013519,840.736511  C368.835297,848.192444 359.410889,855.346619 350.059235,862.587341  C345.408569,866.188354 343.602234,865.969421 337.258484,861.285706  C315.272186,845.052734 293.871307,828.074097 272.926025,810.524597  C231.803925,776.069641 190.761826,741.519226 153.195312,703.103516  C147.489395,697.268555 142.001297,691.217957 136.498779,685.188354  C134.592285,683.099304 133.458908,681.040771 137.460205,679.649719  C145.187439,676.963196 146.370483,674.069763 142.033142,667.102539  C134.375183,654.801453 126.421074,642.683350 118.511169,630.540710  C82.279472,574.920044 56.130699,514.889526 39.775539,450.579102  C32.596016,422.348328 27.893797,393.712036 24.445557,364.770081  C18.945366,318.605682 21.255150,272.310913 20.668131,226.059921  C20.612587,221.683563 22.931347,219.299789 27.127216,218.548996  C38.575752,216.500427 50.128452,215.145523 61.556885,212.897644  C100.143723,205.307907 134.986526,189.494934 166.412094,165.974991  C167.478775,165.176651 168.556778,164.390854 169.589005,163.549530  C172.787186,160.942871 174.998108,161.726593 176.407242,165.467667  C176.935410,166.869873 177.552704,168.239014 178.063751,169.647034  C181.227615,178.363754 181.253143,178.455780 189.739258,175.456024  C218.869339,165.158813 246.408234,151.307678 273.924835,137.442856  C296.398834,126.118874 318.504242,114.111816 339.191437,99.690308  C341.595337,98.014503 343.484406,97.899307 345.921356,99.594856  C380.951385,123.967545 419.257202,142.316864 457.804901,160.197174  C470.647552,166.154221 483.784271,171.436340 497.096619,176.263931  C501.740448,177.947968 503.777130,176.964859 505.533905,172.344818  C505.651581,172.035324 505.685425,171.694824 505.790955,171.379700  C509.743622,159.578262 509.816986,159.559906 519.723328,166.797546  C522.413269,168.762863 525.144836,170.671310 528.157715,172.800598 M578.595032,567.145081  C591.636963,543.274658 603.056213,518.721069 610.878906,492.570740  C620.101501,461.740356 626.703552,430.423431 629.901733,398.371063  C632.306702,374.268799 632.901062,350.221008 629.611755,326.163910  C627.316345,309.375824 620.261292,296.172882 602.501160,291.756195  C590.327271,288.728729 577.994263,290.651489 565.739563,291.752411  C563.328003,291.968994 560.477356,293.451843 559.046570,290.483429  C557.672913,287.633698 560.281860,285.942139 562.013916,284.224762  C568.055481,278.234070 573.932190,272.090790 578.804504,265.092072  C586.440796,254.123154 585.637817,244.581802 576.080383,235.116333  C567.327759,226.447815 557.164612,219.715149 545.508606,215.718781  C512.107727,204.267014 479.066956,191.924179 446.537598,178.156616  C432.264374,172.115662 417.115845,170.110199 401.548737,171.833954  C381.659760,174.036270 366.090210,184.568924 351.778351,197.444504  C341.667023,206.541107 341.931641,206.549652 332.234711,197.126434  C308.474060,174.036453 280.549408,166.088928 248.255463,174.525146  C233.660812,178.337723 220.392426,185.466980 206.532715,191.122787  C183.248215,200.624649 159.183380,208.011978 135.718796,217.028259  C125.007568,221.144058 115.465393,227.259186 107.529274,235.535294  C98.449799,245.003754 97.937393,253.830353 105.083023,264.823456  C110.031319,272.436127 116.466301,278.720886 122.852058,285.062439  C124.400810,286.600494 126.129906,288.282776 124.854561,290.694122  C123.674370,292.925568 121.433823,292.301727 119.476166,292.046967  C109.893860,290.799744 100.271980,289.791382 90.614807,290.374390  C75.126129,291.309448 63.878334,298.470856 57.892132,313.265930  C54.031822,322.806824 52.171253,332.836365 51.538712,342.907318  C50.011593,367.221161 51.491100,391.411682 55.721676,415.478027  C61.538166,448.566101 71.011322,480.551392 83.545837,511.654816  C101.164192,555.373474 122.599663,597.046875 150.073990,635.497864  C175.654312,671.298157 204.853043,703.875793 237.341217,733.471191  C257.190002,751.552795 277.949677,768.526428 301.561493,781.680603  C306.466064,784.412842 310.665192,784.366089 314.753662,780.534302  C316.453705,778.940979 318.189117,777.370544 319.750824,775.646912  C328.047882,766.489624 333.650177,755.774414 337.750824,744.207214  C338.524750,742.024170 338.958954,739.423645 342.055481,739.511841  C345.132080,739.599609 345.401917,742.295837 346.192749,744.432922  C347.347748,747.554260 348.332581,750.748840 349.661163,753.793823  C353.692200,763.032410 358.829773,771.544006 366.377930,778.414856  C372.600281,784.078857 379.360138,785.525024 386.967834,781.281433  C391.910492,778.524353 397.073517,776.126221 401.846771,773.107117  C439.565796,749.249878 470.853851,718.307556 499.498993,684.420837  C529.966614,648.378235 555.155579,608.801758 578.595032,567.145081 z"/>
<path fill="#000000" opacity="1.000000" stroke="none" d=" M310.997650,667.189209  C281.493774,676.797241 252.225021,677.985474 222.767334,668.904114  C221.812332,668.609680 220.843597,668.345459 219.916306,667.978638  C218.245087,667.317383 216.251892,666.976868 215.900314,664.722900  C215.521133,662.292114 217.228500,661.054260 218.931992,660.004700  C225.604599,655.893616 232.223114,651.709900 238.209473,646.618530  C242.801804,642.712891 247.037933,638.478516 249.857681,633.056274  C250.672195,631.489929 252.041397,629.883362 250.533554,628.010132  C249.327774,626.512146 247.685623,626.698181 245.957886,626.833130  C207.356934,629.847900 173.236145,619.022095 143.920074,593.577148  C140.403259,590.524719 137.180344,587.128235 133.888672,583.823975  C132.140076,582.068726 129.919235,580.260437 130.933853,577.423340  C132.027237,574.366028 135.003571,574.964844 137.404648,574.997864  C148.857452,575.155640 159.994446,573.684631 170.491043,568.829041  C173.776978,567.308960 178.201141,565.992737 178.198242,561.919800  C178.195389,557.940796 173.603104,557.130554 170.526825,555.707031  C132.694366,538.200317 109.122070,508.853973 98.267235,468.907074  C98.049835,468.107025 97.774124,467.289124 97.758095,466.474976  C97.723007,464.693451 97.136353,462.673035 98.929237,461.386047  C100.780533,460.057129 102.420387,461.313324 104.015640,462.155304  C111.563911,466.139282 119.438110,469.216309 127.797241,471.057861  C131.766296,471.932251 135.763779,471.905426 139.735703,471.609985  C145.381363,471.190002 146.946838,468.058533 143.952530,463.170959  C135.132080,448.773590 127.259506,434.003937 123.400070,417.351532  C118.155144,394.721069 118.561691,372.177551 123.816002,349.649994  C124.283936,347.643768 124.525078,345.167084 127.354782,344.795135  C130.012283,344.445831 131.156799,346.423950 132.386414,348.217804  C139.293762,358.294891 146.748276,367.891754 156.890564,374.979431  C159.521469,376.817963 162.344025,379.887634 165.790237,377.930328  C169.099030,376.051056 167.718140,372.150238 167.497147,369.156677  C165.003418,335.377319 173.931992,304.918030 193.893860,277.655334  C198.819077,270.928772 204.284775,264.635651 210.301376,258.841248  C211.653870,257.538727 213.057724,256.320007 215.128723,256.882172  C217.496536,257.524872 217.118118,259.590485 217.407898,261.359070  C218.669647,269.059845 219.059952,276.895508 221.291306,284.449982  C223.009811,290.268127 225.296219,295.770752 229.192413,300.453186  C232.868179,304.870728 235.069305,304.668335 237.521255,299.400665  C243.555634,286.436707 251.358734,274.736481 261.344879,264.479340  C281.673492,243.599152 306.539520,230.738144 334.345032,223.060867  C336.090454,222.578918 338.190918,221.985092 339.545441,223.539566  C341.236206,225.479874 339.504089,227.300735 338.559387,228.967728  C333.495697,237.902939 330.214417,247.452225 328.610474,257.578125  C328.351837,259.210693 328.405945,260.895203 328.349701,262.556854  C328.260620,265.187775 328.864960,267.647430 331.183899,269.120178  C333.830017,270.800690 335.997772,268.949554 337.998169,267.551239  C359.206696,252.726089 382.938507,244.579041 408.379669,241.122284  C423.477173,239.070938 438.605591,239.534363 453.639984,241.918320  C455.895782,242.276031 459.128540,241.995941 459.885132,245.089264  C460.690002,248.380234 457.766266,249.671265 455.643005,251.152817  C445.616882,258.148590 435.948639,265.493469 429.824890,276.459198  C429.095337,277.765594 428.313538,279.073364 427.815735,280.472870  C426.321716,284.672791 428.178955,287.230103 432.588165,286.526276  C443.342468,284.809540 454.067902,284.474701 464.912323,285.635498  C498.435577,289.223938 527.883484,301.848083 552.725037,324.813232  C554.220764,326.195953 556.537598,327.545288 555.367920,330.167694  C554.282410,332.601562 551.837708,332.176971 549.689270,332.338684  C539.076111,333.137604 528.455627,333.895050 518.239319,337.268982  C514.740417,338.424500 511.351990,339.784760 508.320282,341.906616  C506.555206,343.141968 504.349976,344.333557 504.648468,346.830841  C504.942108,349.287140 507.222260,350.085144 509.304932,350.805878  C514.989258,352.772858 520.384338,355.385040 525.700928,358.170166  C559.229431,375.734436 579.584961,403.873993 590.806274,439.328217  C591.461792,441.399384 592.074829,443.639587 590.037354,445.340973  C588.083557,446.972504 586.193298,445.516815 584.435364,444.807617  C573.009583,440.198029 561.696960,435.221527 549.050110,435.053375  C548.883606,435.051178 548.716492,435.022125 548.550964,435.030670  C545.308838,435.198608 541.269958,433.972900 539.454956,437.495758  C537.679443,440.942078 541.232849,443.237427 543.035522,445.590698  C558.380615,465.622955 566.054504,488.373901 568.516724,513.345032  C570.043152,528.825134 568.413025,543.874146 565.361023,558.923096  C564.874634,561.321472 564.718018,564.236877 561.777893,564.974609  C558.443665,565.811096 557.211548,562.825928 555.682373,560.764099  C549.695190,552.691772 543.116882,545.207336 534.854370,539.364807  C533.361816,538.309387 531.780273,537.356750 530.160461,536.508240  C523.366760,532.949402 520.798645,534.298218 521.373718,542.028625  C522.773071,560.840454 521.123962,579.257629 515.581360,597.294006  C508.363464,620.781860 494.793945,640.325928 477.847168,657.747986  C476.580261,659.050415 475.288544,660.584595 473.165131,660.008179  C470.679657,659.333557 470.796936,657.117310 470.529785,655.146973  C469.259216,645.776489 468.975891,636.243835 465.771667,627.192261  C464.711182,624.196472 463.589600,621.250732 461.864716,618.572510  C458.253204,612.964844 455.683472,612.987854 452.853302,618.890808  C445.567505,634.087036 435.922424,647.577026 423.666992,659.116150  C402.175720,679.351318 376.750549,692.228149 348.096527,698.909058  C346.315155,699.324402 344.382507,699.806458 342.997162,698.066162  C341.532440,696.226196 342.815399,694.609070 343.695953,693.030273  C348.829590,683.826172 353.050262,674.285400 355.123383,663.862427  C355.752380,660.700012 355.761780,657.569397 355.644287,654.422424  C355.411896,648.198059 351.997040,646.395203 346.810211,649.983948  C335.879486,657.546753 323.883209,662.818237 310.997650,667.189209 M475.965485,356.512970  C429.879608,303.202698 372.052551,283.878448 303.354340,298.104004  C265.312042,305.981567 233.927841,325.910736 209.730484,356.257660  C179.886124,393.686737 167.952789,436.649170 174.783844,483.996704  C180.959839,526.803894 201.388016,562.217102 235.238266,589.329590  C272.232819,618.960571 314.801910,631.162109 361.760651,626.391785  C391.428162,623.377991 418.778656,612.793335 442.687531,594.725037  C495.529388,554.791565 518.324524,501.552216 510.441711,435.864746  C506.921448,406.530182 494.927429,380.236206 475.965485,356.512970 z"/>
<path fill="#000000" opacity="1.000000" stroke="none" d=" M379.880371,518.919861  C375.735138,535.243225 381.810120,548.695007 390.376434,561.425171  C393.156677,565.556824 396.543030,569.279602 399.634979,573.202881  C404.261658,579.073547 403.414368,583.213318 396.811340,586.337219  C373.589569,597.323547 349.128845,600.156494 323.771698,597.664551  C313.437500,596.648987 303.421112,594.462463 293.600281,591.246460  C291.083344,590.422180 288.568298,589.409546 286.290009,588.077087  C281.515106,585.284546 280.850861,582.636353 283.551147,577.758240  C290.095276,565.936157 296.585052,554.025085 298.977753,540.572632  C301.073303,528.790833 301.320129,516.956787 294.649353,506.204651  C286.617676,493.258759 271.295624,487.758484 255.797104,491.886261  C241.142014,495.789398 228.506409,503.186981 217.485764,513.486389  C213.388260,517.315674 210.698486,516.909851 207.655869,511.673828  C200.401047,499.189087 196.697662,485.486542 195.892136,471.265747  C194.671555,449.717560 196.095764,428.333954 203.884094,407.840424  C204.120712,407.217773 204.333237,406.585632 204.580460,405.967316  C208.599731,395.915253 211.264847,394.930023 220.320084,400.623077  C234.128677,409.304535 248.866501,414.809967 265.412506,414.719818  C294.490387,414.561371 311.567261,389.278961 300.867249,362.201080  C296.840088,352.009735 290.896027,343.031586 283.836182,334.725861  C279.873016,330.063263 280.591248,326.502563 286.267883,324.327454  C321.616547,310.782959 357.265472,309.410370 393.120300,322.230560  C401.126526,325.093292 401.757538,327.883057 397.046631,334.790863  C389.303986,346.144196 382.678436,357.925293 381.069397,372.007019  C377.884644,399.878937 402.422272,426.337524 434.231140,413.833679  C445.051208,409.580414 454.748657,403.556549 463.841553,396.432098  C469.841614,391.730957 473.978180,392.596771 477.135345,399.596405  C481.610596,409.518463 484.009888,420.064697 485.769714,430.760712  C489.361237,452.589844 488.595154,474.180206 482.005280,495.409149  C481.021423,498.578552 479.811127,501.709320 478.377472,504.700684  C475.553528,510.592621 471.546661,511.838074 465.752045,508.687317  C453.710236,502.139832 441.376862,496.383057 427.742950,493.953003  C406.597229,490.184021 385.984344,498.901947 379.880371,518.919861 M355.515839,463.015839  C358.934784,459.607758 362.478577,456.313812 365.071747,452.173187  C367.755432,447.887939 368.390503,443.605560 365.484467,439.105164  C362.798035,434.944794 358.794342,432.004364 354.211304,433.391785  C345.300201,436.089478 336.699951,435.700226 327.623657,434.594025  C320.649994,433.744080 316.232971,440.649719 318.133881,447.482361  C321.420044,459.294128 329.844116,466.931671 339.565796,473.457825  C341.610687,474.830566 343.449585,473.921082 345.016571,472.549561  C348.395813,469.591858 351.680328,466.525879 355.515839,463.015839 z"/>
</svg>